<?xml version="1.0"?>
<!-- Converted with SVG Converter - Version 0.9.5 (Compiled Mon May 30 09:08:51 2011) - Copyright (C) 2011 Nokia -->
<svg xmlns="http://www.w3.org/2000/svg" width="96px" x="0px" version="1.1" y="0px" height="96px" viewBox="0 0 96 96" xmlns:xlink="http://www.w3.org/1999/xlink" baseProfile="tiny" xml:space="preserve">
 <g id="DO_NOT_EDIT_-_BOUNDING_BOX">
  <rect width="96" fill="none" height="96" id="BOUNDING_BOX"/>
 </g>
 <g id="DO_NOT_EDIT_-_SHADOW">
  <path stroke-opacity="0.4" fill-opacity="0.4" id="SHADOW" d="M88.023,49c0,29.633-10.364,40-40,40c-29.635,0-40-10.367-40-40c0-29.634,10.366-40,40-40&#xd;&#xa;&#x9;&#x9;C77.659,9,88.023,19.365,88.023,49z"/>
 </g>
 <g id="BLUE_BACKGROUNDS">
  <g id="BLUE_0">
   <linearGradient id="BLUE_1_1_" y1="8.0107" x1="47.9995" y2="87.9897" gradientUnits="userSpaceOnUse" x2="47.9995">
    <stop offset="0" style="stop-color:#00FFFF"/>
    <stop offset="1" style="stop-color:#07C6FF"/>
   </linearGradient>
   <path fill="url(#BLUE_1_1_)" id="BLUE_1_4_" d="M8,47.989c0,29.633,10.365,40,40,40c29.637,0,40-10.367,40-40&#xd;&#xa;&#x9;&#x9;&#x9;c0-28.985-9.926-39.53-38.091-39.979h-3.817C17.928,8.459,8,19.004,8,47.989z"/>
   <linearGradient id="HIGHLIGHT_BLU1_2_" y1="8.2559" x1="47.9995" y2="87.5043" gradientUnits="userSpaceOnUse" x2="47.9995">
    <stop offset="0.0364" style="stop-color:#FFFFFF"/>
    <stop offset="0.0805" style="stop-color:#F5FCFF"/>
    <stop offset="0.1552" style="stop-color:#DBF3FF"/>
    <stop offset="0.2513" style="stop-color:#AFE4FF"/>
    <stop offset="0.3651" style="stop-color:#73D0FE"/>
    <stop offset="0.4925" style="stop-color:#28B7FE"/>
    <stop offset="0.5394" style="stop-color:#0AADFE"/>
    <stop offset="1" style="stop-color:#005E70"/>
   </linearGradient>
   <path stroke-opacity="0.4" fill="url(#HIGHLIGHT_BLU1_2_)" fill-opacity="0.4" id="HIGHLIGHT_BLU1_1_" d="M48,8C18.365,8,8,18.365,8,48&#xd;&#xa;&#x9;&#x9;&#x9;c0,29.633,10.365,40,40,40c29.637,0,40-10.367,40-40C88,18.365,77.637,8,48,8z M48,87.023C18.842,87.023,9,77.176,9,48&#xd;&#xa;&#x9;&#x9;&#x9;S18.842,8.977,48,8.977S87,18.824,87,48S77.158,87.023,48,87.023z"/>
  </g>
 </g>
 <g id="PLACE_YOUR_GRAPHIC_HERE">
  <path stroke-opacity="0.05" fill-opacity="0.05" d="M49.66,67.82h-17.33c-2.668,0-4.839,2.171-4.839,4.84s2.171,4.84,4.839,4.84h17.33&#xd;&#xa;&#x9;&#x9;c2.669,0,4.84-2.171,4.84-4.84S52.329,67.82,49.66,67.82z M77.135,26.516c0-1.812-1.474-3.286-3.285-3.286h-7.68&#xd;&#xa;&#x9;&#x9;c-0.581,0-1.159,0.158-1.661,0.449c-0.5-0.292-1.078-0.449-1.659-0.449h-7.68c-0.582,0-1.161,0.158-1.664,0.451&#xd;&#xa;&#x9;&#x9;c-0.501-0.292-1.08-0.451-1.662-0.451h-7.68c-0.582,0-1.161,0.158-1.664,0.451c-0.501-0.292-1.08-0.451-1.663-0.451h-7.681&#xd;&#xa;&#x9;&#x9;c-0.583,0-1.161,0.158-1.663,0.451c-0.502-0.292-1.081-0.451-1.663-0.451h-7.68c-1.812,0-3.286,1.474-3.286,3.286v3.881&#xd;&#xa;&#x9;&#x9;c0,0.566,0.141,1.112,0.411,1.597c-0.27,0.484-0.411,1.03-0.411,1.597v3.881c0,0.566,0.142,1.112,0.412,1.597&#xd;&#xa;&#x9;&#x9;c-0.27,0.485-0.412,1.031-0.412,1.597v3.88c0,1.813,1.474,3.287,3.286,3.287h7.68c0.583,0,1.161-0.158,1.663-0.451&#xd;&#xa;&#x9;&#x9;c0.501,0.292,1.08,0.451,1.663,0.451h7.681c0.583,0,1.161-0.158,1.663-0.451c0.502,0.293,1.081,0.451,1.663,0.451h7.68&#xd;&#xa;&#x9;&#x9;c1.812,0,3.285-1.475,3.285-3.287v-3.789c0.014,0,7.743,0,7.754,0v3.789c0,1.813,1.475,3.287,3.287,3.287h7.68&#xd;&#xa;&#x9;&#x9;c1.812,0,3.285-1.475,3.285-3.287v-3.88c0-0.566-0.142-1.112-0.412-1.597c0.271-0.485,0.412-1.031,0.412-1.597v-3.881&#xd;&#xa;&#x9;&#x9;c0-0.565-0.142-1.111-0.412-1.597c0.271-0.485,0.412-1.031,0.412-1.597V26.516z"/>
  <path stroke-opacity="0.07" fill-opacity="0.07" d="M49.66,68.32h-17.33c-2.393,0-4.339,1.947-4.339,4.34S29.938,77,32.331,77h17.33&#xd;&#xa;&#x9;&#x9;c2.393,0,4.34-1.947,4.34-4.34S52.053,68.32,49.66,68.32z M76.635,26.516c0-1.536-1.249-2.786-2.785-2.786h-7.68&#xd;&#xa;&#x9;&#x9;c-0.601,0-1.185,0.195-1.661,0.547c-0.475-0.352-1.059-0.547-1.659-0.547h-7.68c-0.603,0-1.188,0.196-1.664,0.548&#xd;&#xa;&#x9;&#x9;c-0.476-0.353-1.06-0.548-1.662-0.548h-7.68c-0.602,0-1.187,0.196-1.664,0.548c-0.476-0.353-1.061-0.548-1.663-0.548h-7.681&#xd;&#xa;&#x9;&#x9;c-0.602,0-1.187,0.196-1.663,0.549c-0.476-0.353-1.061-0.549-1.663-0.549h-7.68c-1.536,0-2.786,1.25-2.786,2.786v3.881&#xd;&#xa;&#x9;&#x9;c0,0.581,0.175,1.134,0.5,1.597c-0.325,0.463-0.5,1.017-0.5,1.597v3.881c0,0.58,0.176,1.133,0.501,1.597&#xd;&#xa;&#x9;&#x9;c-0.325,0.464-0.501,1.017-0.501,1.597v3.88c0,1.537,1.25,2.787,2.786,2.787h7.68c0.602,0,1.187-0.196,1.663-0.549&#xd;&#xa;&#x9;&#x9;c0.476,0.353,1.061,0.549,1.663,0.549h7.681c0.602,0,1.187-0.196,1.663-0.549c0.476,0.353,1.062,0.549,1.664,0.549h7.68&#xd;&#xa;&#x9;&#x9;c1.536,0,2.785-1.25,2.785-2.787v-3.88c0-0.159-0.013-0.315-0.039-0.469c0.189,0.04,0.384,0.061,0.58,0.061h7.68&#xd;&#xa;&#x9;&#x9;c0.193,0,0.385-0.02,0.572-0.06c-0.026,0.153-0.039,0.31-0.039,0.468v3.88c0,1.537,1.25,2.787,2.787,2.787h7.68&#xd;&#xa;&#x9;&#x9;c1.536,0,2.785-1.25,2.785-2.787v-3.88c0-0.58-0.176-1.133-0.501-1.597c0.325-0.464,0.501-1.017,0.501-1.597v-3.881&#xd;&#xa;&#x9;&#x9;c0-0.58-0.176-1.133-0.501-1.597c0.325-0.463,0.501-1.017,0.501-1.597V26.516z"/>
  <path stroke-opacity="0.1" fill-opacity="0.1" d="M76.135,26.516c0-1.261-1.025-2.286-2.285-2.286h-7.68c-0.645,0-1.238,0.265-1.661,0.712&#xd;&#xa;&#x9;&#x9;c-0.422-0.447-1.016-0.712-1.659-0.712h-7.68c-0.646,0-1.241,0.266-1.664,0.715c-0.422-0.449-1.017-0.715-1.662-0.715h-7.68&#xd;&#xa;&#x9;&#x9;c-0.646,0-1.241,0.266-1.664,0.714c-0.422-0.449-1.017-0.714-1.663-0.714h-7.681c-0.646,0-1.24,0.266-1.663,0.715&#xd;&#xa;&#x9;&#x9;c-0.423-0.449-1.017-0.715-1.663-0.715h-7.68c-1.261,0-2.286,1.025-2.286,2.286v3.881c0,0.61,0.238,1.178,0.649,1.597&#xd;&#xa;&#x9;&#x9;c-0.411,0.42-0.649,0.987-0.649,1.597v3.881c0,0.61,0.238,1.178,0.649,1.597c-0.411,0.419-0.649,0.987-0.649,1.597v3.88&#xd;&#xa;&#x9;&#x9;c0,1.261,1.025,2.287,2.286,2.287h7.68c0.646,0,1.24-0.266,1.663-0.715c0.422,0.449,1.017,0.715,1.663,0.715h7.681&#xd;&#xa;&#x9;&#x9;c0.646,0,1.24-0.266,1.663-0.715c0.423,0.449,1.018,0.715,1.664,0.715h7.68c1.26,0,2.285-1.026,2.285-2.287v-3.88&#xd;&#xa;&#x9;&#x9;c0-0.61-0.238-1.178-0.649-1.598c0.008-0.008,0.017-0.018,0.025-0.026c0.422,0.45,1.018,0.716,1.665,0.716h7.68&#xd;&#xa;&#x9;&#x9;c0.645,0,1.238-0.265,1.661-0.714c0.007,0.008,0.015,0.016,0.022,0.024c-0.412,0.419-0.65,0.988-0.65,1.598v3.88&#xd;&#xa;&#x9;&#x9;c0,1.261,1.026,2.287,2.287,2.287h7.68c1.26,0,2.285-1.026,2.285-2.287v-3.88c0-0.61-0.238-1.178-0.649-1.597&#xd;&#xa;&#x9;&#x9;c0.411-0.419,0.649-0.987,0.649-1.597v-3.881c0-0.61-0.238-1.178-0.648-1.597c0.41-0.419,0.648-0.986,0.648-1.597V26.516z&#xd;&#xa;&#x9;&#x9; M49.66,68.82h-17.33c-2.117,0-3.839,1.723-3.839,3.84s1.722,3.84,3.839,3.84h17.33c2.117,0,3.84-1.723,3.84-3.84&#xd;&#xa;&#x9;&#x9;S51.777,68.82,49.66,68.82z"/>
  <path stroke-opacity="0.15" fill-opacity="0.15" d="M49.66,69.32h-17.33c-1.841,0-3.339,1.498-3.339,3.34S30.489,76,32.331,76h17.33&#xd;&#xa;&#x9;&#x9;c1.842,0,3.34-1.498,3.34-3.34S51.502,69.32,49.66,69.32z M75.635,30.397v-3.881c0-0.985-0.801-1.786-1.785-1.786h-7.68&#xd;&#xa;&#x9;&#x9;c-0.753,0-1.398,0.467-1.661,1.127c-0.263-0.66-0.907-1.127-1.659-1.127h-7.68c-0.756,0-1.403,0.471-1.664,1.134&#xd;&#xa;&#x9;&#x9;c-0.261-0.664-0.907-1.134-1.662-1.134h-7.68c-0.755,0-1.402,0.47-1.664,1.133c-0.261-0.663-0.908-1.133-1.663-1.133h-7.681&#xd;&#xa;&#x9;&#x9;c-0.755,0-1.402,0.471-1.663,1.134c-0.261-0.663-0.908-1.134-1.663-1.134h-7.68c-0.985,0-1.786,0.801-1.786,1.786v3.881&#xd;&#xa;&#x9;&#x9;c0,0.698,0.402,1.303,0.986,1.597c-0.584,0.294-0.986,0.899-0.986,1.597v3.881c0,0.698,0.402,1.303,0.987,1.597&#xd;&#xa;&#x9;&#x9;c-0.584,0.294-0.987,0.899-0.987,1.597v3.88c0,0.985,0.801,1.787,1.786,1.787h7.68c0.755,0,1.402-0.471,1.663-1.134&#xd;&#xa;&#x9;&#x9;c0.261,0.664,0.908,1.134,1.663,1.134h7.681c0.754,0,1.401-0.471,1.663-1.134c0.261,0.663,0.909,1.134,1.664,1.134h7.68&#xd;&#xa;&#x9;&#x9;c0.984,0,1.785-0.802,1.785-1.787v-3.88c0-0.698-0.402-1.303-0.986-1.597c0.392-0.197,0.702-0.534,0.863-0.945&#xd;&#xa;&#x9;&#x9;c0.261,0.664,0.908,1.134,1.664,1.134h7.68c0.752,0,1.396-0.467,1.659-1.127c0.163,0.408,0.472,0.742,0.861,0.938&#xd;&#xa;&#x9;&#x9;c-0.585,0.294-0.987,0.899-0.987,1.597v3.88c0,0.985,0.802,1.787,1.787,1.787h7.68c0.984,0,1.785-0.802,1.785-1.787v-3.88&#xd;&#xa;&#x9;&#x9;c0-0.698-0.402-1.303-0.986-1.597c0.584-0.294,0.986-0.899,0.986-1.597v-3.881c0-0.698-0.401-1.303-0.986-1.597&#xd;&#xa;&#x9;&#x9;C75.233,31.7,75.635,31.095,75.635,30.397z M31.494,31.049c0.162,0.411,0.471,0.748,0.863,0.944&#xd;&#xa;&#x9;&#x9;c-0.392,0.197-0.701,0.534-0.863,0.945c-0.162-0.411-0.472-0.748-0.863-0.945C31.022,31.797,31.332,31.46,31.494,31.049z&#xd;&#xa;&#x9;&#x9; M31.494,40.014c-0.162-0.411-0.472-0.748-0.864-0.945c0.392-0.197,0.702-0.534,0.864-0.945c0.162,0.411,0.472,0.748,0.863,0.945&#xd;&#xa;&#x9;&#x9;C31.966,39.266,31.656,39.603,31.494,40.014z M42.5,31.05c0.162,0.411,0.472,0.747,0.863,0.944&#xd;&#xa;&#x9;&#x9;c-0.392,0.197-0.701,0.534-0.863,0.944c-0.162-0.411-0.471-0.747-0.863-0.944C42.029,31.797,42.338,31.46,42.5,31.05z M42.5,40.014&#xd;&#xa;&#x9;&#x9;c-0.162-0.411-0.472-0.748-0.863-0.944c0.392-0.197,0.702-0.534,0.863-0.944c0.162,0.411,0.472,0.748,0.864,0.944&#xd;&#xa;&#x9;&#x9;C42.972,39.266,42.662,39.603,42.5,40.014z M53.506,32.939c-0.161-0.411-0.471-0.748-0.863-0.945&#xd;&#xa;&#x9;&#x9;c0.393-0.197,0.702-0.534,0.863-0.945c0.162,0.411,0.472,0.748,0.864,0.945C53.978,32.191,53.668,32.528,53.506,32.939z&#xd;&#xa;&#x9;&#x9; M64.509,32.932c-0.162-0.408-0.471-0.742-0.86-0.938c0.39-0.196,0.698-0.53,0.86-0.938c0.162,0.408,0.472,0.742,0.861,0.938&#xd;&#xa;&#x9;&#x9;C64.98,32.19,64.671,32.524,64.509,32.932z"/>
  <path stroke-opacity="0.15" fill-opacity="0.15" d="M22.151,31.683h7.68c0.709,0,1.286-0.577,1.286-1.286v-3.881c0-0.709-0.577-1.286-1.286-1.286h-7.68&#xd;&#xa;&#x9;&#x9;c-0.709,0-1.286,0.577-1.286,1.286v3.881C20.865,31.106,21.442,31.683,22.151,31.683z M49.66,69.82h-17.33&#xd;&#xa;&#x9;&#x9;c-1.565,0-2.839,1.274-2.839,2.84s1.274,2.84,2.839,2.84h17.33c1.565,0,2.84-1.274,2.84-2.84S51.226,69.82,49.66,69.82z&#xd;&#xa;&#x9;&#x9; M22.151,38.758h7.68c0.709,0,1.286-0.577,1.286-1.286v-3.881c0-0.709-0.577-1.286-1.286-1.286h-7.68&#xd;&#xa;&#x9;&#x9;c-0.709,0-1.286,0.577-1.286,1.286v3.881C20.865,38.181,21.442,38.758,22.151,38.758z M31.117,44.547v-3.88&#xd;&#xa;&#x9;&#x9;c0-0.709-0.577-1.286-1.286-1.286h-7.68c-0.709,0-1.286,0.577-1.286,1.286v3.88c0,0.709,0.577,1.287,1.286,1.287h7.68&#xd;&#xa;&#x9;&#x9;C30.54,45.834,31.117,45.256,31.117,44.547z M33.157,45.834h7.681c0.709,0,1.286-0.578,1.286-1.287v-3.88&#xd;&#xa;&#x9;&#x9;c0-0.709-0.577-1.286-1.286-1.286h-7.681c-0.709,0-1.286,0.577-1.286,1.286v3.88C31.871,45.256,32.448,45.834,33.157,45.834z&#xd;&#xa;&#x9;&#x9; M33.157,31.683h7.681c0.709,0,1.286-0.577,1.286-1.286v-3.881c0-0.709-0.577-1.286-1.286-1.286h-7.681&#xd;&#xa;&#x9;&#x9;c-0.709,0-1.286,0.577-1.286,1.286v3.881C31.871,31.106,32.448,31.683,33.157,31.683z M33.157,38.758h7.681&#xd;&#xa;&#x9;&#x9;c0.709,0,1.286-0.577,1.286-1.286v-3.881c0-0.709-0.577-1.286-1.286-1.286h-7.681c-0.709,0-1.286,0.577-1.286,1.286v3.881&#xd;&#xa;&#x9;&#x9;C31.871,38.181,32.448,38.758,33.157,38.758z M73.85,39.38h-7.68c-0.71,0-1.287,0.577-1.287,1.286v3.88&#xd;&#xa;&#x9;&#x9;c0,0.709,0.577,1.287,1.287,1.287h7.68c0.709,0,1.285-0.578,1.285-1.287v-3.88C75.135,39.958,74.559,39.38,73.85,39.38z&#xd;&#xa;&#x9;&#x9; M62.85,25.229h-7.68c-0.71,0-1.287,0.577-1.287,1.286v3.881c0,0.709,0.577,1.286,1.287,1.286h7.68&#xd;&#xa;&#x9;&#x9;c0.709,0,1.285-0.577,1.285-1.286v-3.881C64.135,25.807,63.559,25.229,62.85,25.229z M73.85,32.305h-7.68&#xd;&#xa;&#x9;&#x9;c-0.71,0-1.287,0.577-1.287,1.286v3.881c0,0.709,0.577,1.286,1.287,1.286h7.68c0.709,0,1.285-0.577,1.285-1.286v-3.881&#xd;&#xa;&#x9;&#x9;C75.135,32.882,74.559,32.305,73.85,32.305z M73.85,25.229h-7.68c-0.71,0-1.287,0.577-1.287,1.286v3.881&#xd;&#xa;&#x9;&#x9;c0,0.709,0.577,1.286,1.287,1.286h7.68c0.709,0,1.285-0.577,1.285-1.286v-3.881C75.135,25.807,74.559,25.229,73.85,25.229z&#xd;&#xa;&#x9;&#x9; M51.844,32.305h-7.68c-0.709,0-1.287,0.577-1.287,1.286v3.881c0,0.709,0.578,1.286,1.287,1.286h7.68&#xd;&#xa;&#x9;&#x9;c0.709,0,1.285-0.577,1.285-1.286v-3.881C53.129,32.882,52.553,32.305,51.844,32.305z M51.844,39.38h-7.68&#xd;&#xa;&#x9;&#x9;c-0.709,0-1.287,0.577-1.287,1.286v3.88c0,0.709,0.578,1.287,1.287,1.287h7.68c0.709,0,1.285-0.578,1.285-1.287v-3.88&#xd;&#xa;&#x9;&#x9;C53.129,39.958,52.553,39.38,51.844,39.38z M62.85,32.305h-7.68c-0.71,0-1.287,0.577-1.287,1.286v3.881&#xd;&#xa;&#x9;&#x9;c0,0.709,0.577,1.286,1.287,1.286h7.68c0.709,0,1.285-0.577,1.285-1.286v-3.881C64.135,32.882,63.559,32.305,62.85,32.305z&#xd;&#xa;&#x9;&#x9; M51.844,25.229h-7.68c-0.709,0-1.287,0.577-1.287,1.286v3.881c0,0.709,0.578,1.286,1.287,1.286h7.68&#xd;&#xa;&#x9;&#x9;c0.709,0,1.285-0.577,1.285-1.286v-3.881C53.129,25.807,52.553,25.229,51.844,25.229z"/>
  <path fill="#FFFFFF" d="M30.617,29.397c0,0.434-0.352,0.786-0.786,0.786h-7.68c-0.434,0-0.786-0.352-0.786-0.786v-3.881&#xd;&#xa;&#x9;&#x9;c0-0.434,0.352-0.786,0.786-0.786h7.68c0.434,0,0.786,0.352,0.786,0.786V29.397z"/>
  <path fill="#FFFFFF" d="M41.624,29.397c0,0.434-0.352,0.786-0.786,0.786h-7.681c-0.434,0-0.786-0.352-0.786-0.786v-3.881&#xd;&#xa;&#x9;&#x9;c0-0.434,0.352-0.786,0.786-0.786h7.681c0.435,0,0.786,0.352,0.786,0.786V29.397z"/>
  <path fill="#FFFFFF" d="M52.629,29.397c0,0.434-0.352,0.786-0.785,0.786h-7.68c-0.436,0-0.787-0.352-0.787-0.786v-3.881&#xd;&#xa;&#x9;&#x9;c0-0.434,0.352-0.786,0.787-0.786h7.68c0.434,0,0.785,0.352,0.785,0.786V29.397z"/>
  <path fill="#FFFFFF" d="M63.635,29.397c0,0.434-0.352,0.786-0.785,0.786h-7.68c-0.436,0-0.787-0.352-0.787-0.786v-3.881&#xd;&#xa;&#x9;&#x9;c0-0.434,0.352-0.786,0.787-0.786h7.68c0.434,0,0.785,0.352,0.785,0.786V29.397z"/>
  <path fill="#FFFFFF" d="M30.617,36.472c0,0.434-0.352,0.786-0.786,0.786h-7.68c-0.434,0-0.786-0.352-0.786-0.786v-3.881&#xd;&#xa;&#x9;&#x9;c0-0.434,0.352-0.786,0.786-0.786h7.68c0.435,0,0.786,0.352,0.786,0.786V36.472z"/>
  <path fill="#FFFFFF" d="M41.624,36.472c0,0.434-0.352,0.786-0.786,0.786h-7.681c-0.434,0-0.786-0.352-0.786-0.786v-3.881&#xd;&#xa;&#x9;&#x9;c0-0.434,0.352-0.786,0.786-0.786h7.681c0.435,0,0.786,0.352,0.786,0.786V36.472z"/>
  <path fill="#FFFFFF" d="M52.629,36.472c0,0.434-0.352,0.786-0.785,0.786h-7.68c-0.436,0-0.787-0.352-0.787-0.786v-3.881&#xd;&#xa;&#x9;&#x9;c0-0.434,0.352-0.786,0.787-0.786h7.68c0.434,0,0.785,0.352,0.785,0.786V36.472z"/>
  <path fill="#FFFFFF" d="M63.635,36.472c0,0.434-0.352,0.786-0.785,0.786h-7.68c-0.436,0-0.787-0.352-0.787-0.786v-3.881&#xd;&#xa;&#x9;&#x9;c0-0.434,0.352-0.786,0.787-0.786h7.68c0.434,0,0.785,0.352,0.785,0.786V36.472z"/>
  <path fill="#FFFFFF" d="M30.617,43.547c0,0.435-0.352,0.787-0.786,0.787h-7.68c-0.434,0-0.786-0.353-0.786-0.787v-3.88&#xd;&#xa;&#x9;&#x9;c0-0.435,0.352-0.786,0.786-0.786h7.68c0.435,0,0.786,0.352,0.786,0.786V43.547z"/>
  <path fill="#FFFFFF" d="M41.624,43.547c0,0.435-0.352,0.787-0.786,0.787h-7.681c-0.434,0-0.786-0.353-0.786-0.787v-3.88&#xd;&#xa;&#x9;&#x9;c0-0.435,0.352-0.786,0.786-0.786h7.681c0.435,0,0.786,0.352,0.786,0.786V43.547z"/>
  <path fill="#FFFFFF" d="M52.629,43.547c0,0.435-0.352,0.787-0.785,0.787h-7.68c-0.436,0-0.787-0.353-0.787-0.787v-3.88&#xd;&#xa;&#x9;&#x9;c0-0.435,0.352-0.786,0.787-0.786h7.68c0.434,0,0.785,0.352,0.785,0.786V43.547z"/>
  <path fill="#FFFFFF" d="M74.635,29.397c0,0.434-0.352,0.786-0.785,0.786h-7.68c-0.436,0-0.787-0.352-0.787-0.786v-3.881&#xd;&#xa;&#x9;&#x9;c0-0.434,0.352-0.786,0.787-0.786h7.68c0.434,0,0.785,0.352,0.785,0.786V29.397z"/>
  <path fill="#FFFFFF" d="M74.635,36.472c0,0.434-0.352,0.786-0.785,0.786h-7.68c-0.436,0-0.787-0.352-0.787-0.786v-3.881&#xd;&#xa;&#x9;&#x9;c0-0.434,0.352-0.786,0.787-0.786h7.68c0.434,0,0.785,0.352,0.785,0.786V36.472z"/>
  <path fill="#FFFFFF" d="M74.635,43.547c0,0.435-0.352,0.787-0.785,0.787h-7.68c-0.436,0-0.787-0.353-0.787-0.787v-3.88&#xd;&#xa;&#x9;&#x9;c0-0.435,0.352-0.786,0.787-0.786h7.68c0.434,0,0.785,0.352,0.785,0.786V43.547z"/>
  <path fill="#FFFFFF" d="M52,71.66c0,1.292-1.047,2.34-2.34,2.34h-17.33c-1.292,0-2.339-1.048-2.339-2.34l0,0&#xd;&#xa;&#x9;&#x9;c0-1.292,1.047-2.34,2.339-2.34h17.33C50.953,69.32,52,70.368,52,71.66L52,71.66z"/>
  <path stroke-opacity="0.05" fill-opacity="0.05" d="M62.186,46.5H60.5c-2.481,0-4.5,2.019-4.5,4.5v1.686c0,2.481,2.019,4.5,4.5,4.5h1.686&#xd;&#xa;&#x9;&#x9;c2.481,0,4.5-2.019,4.5-4.5V51C66.686,48.519,64.667,46.5,62.186,46.5z"/>
  <path stroke-opacity="0.07" fill-opacity="0.07" d="M62.186,47H60.5c-2.206,0-4,1.794-4,4v1.686c0,2.206,1.794,4,4,4h1.686c2.206,0,4-1.794,4-4V51&#xd;&#xa;&#x9;&#x9;C66.186,48.794,64.392,47,62.186,47z"/>
  <path stroke-opacity="0.1" fill-opacity="0.1" d="M62.186,47.5H60.5c-1.93,0-3.5,1.57-3.5,3.5v1.686c0,1.93,1.57,3.5,3.5,3.5h1.686c1.93,0,3.5-1.57,3.5-3.5&#xd;&#xa;&#x9;&#x9;V51C65.686,49.07,64.115,47.5,62.186,47.5z"/>
  <path stroke-opacity="0.15" fill-opacity="0.15" d="M62.186,48H60.5c-1.654,0-3,1.346-3,3v1.686c0,1.654,1.346,3,3,3h1.686c1.654,0,3-1.346,3-3V51&#xd;&#xa;&#x9;&#x9;C65.186,49.346,63.84,48,62.186,48z"/>
  <path stroke-opacity="0.15" fill-opacity="0.15" d="M62.186,48.5H60.5c-1.379,0-2.5,1.121-2.5,2.5v1.686c0,1.379,1.121,2.5,2.5,2.5h1.686&#xd;&#xa;&#x9;&#x9;c1.379,0,2.5-1.121,2.5-2.5V51C64.686,49.621,63.564,48.5,62.186,48.5z"/>
  <path fill="#FFFFFF" d="M64.186,51.686c0,1.104-0.896,2-2,2H60.5c-1.104,0-2-0.896-2-2V50c0-1.104,0.896-2,2-2h1.686&#xd;&#xa;&#x9;&#x9;c1.104,0,2,0.896,2,2V51.686z"/>
 </g>
 <g id="DO_NOT_EDIT_-_FOCAL_ZONE_GUIDES_ONLY"/>
</svg>
